<svg width="30" height="28" fill="none" xmlns="http://www.w3.org/2000/svg"><g clip-path="url(#clip0)" fill="#666A74"><path d="M27.941 20.596H15.356V11.29h7.347a.348.348 0 0 0 .358-.338c0-4.03-3.323-7.34-7.513-7.609v-.936a.348.348 0 0 0-.357-.338.349.349 0 0 0-.358.338v.92c-4.37.083-7.898 3.471-7.898 7.625 0 .187.16.338.358.338h7.347v9.305H6.708l-4.115-6.95a.369.369 0 0 0-.487-.13.329.329 0 0 0-.137.46l.884 1.493H1.746L.667 13.646a.37.37 0 0 0-.489-.123.329.329 0 0 0-.135.454l1.147 1.938c.015.04.037.077.065.11l3.028 5.112c-.257.281-.398.64-.398 1.012v4.136c0 .187.16.339.358.339a.348.348 0 0 0 .357-.339v-3.19h23.625v3.19c0 .187.16.339.358.339a.349.349 0 0 0 .358-.339v-4.744c0-.522-.448-.945-1-.945zM14.998 4.003c3.917.004 7.143 2.91 7.339 6.611H7.659c.195-3.7 3.422-6.607 7.339-6.611zM4.86 20.729l-.23-.39h1.105l.152.257h-.361c-.23 0-.456.045-.666.133zm-.244-2.281H3.51l-.644-1.088h1.107l.644 1.088zm.4.677l.32.537H4.23l-.319-.537h1.107zm-1.763-2.98l.318.538H2.466l-.319-.538h1.107zM4.6 22.418v-.27c.001-.483.415-.875.927-.876H27.94c.157 0 .284.12.284.27v.876H4.6zM26.407 1.26c-1.616 0-2.927 1.24-2.927 2.769 0 1.528 1.31 2.768 2.927 2.768 1.616 0 2.926-1.24 2.926-2.768-.002-1.528-1.311-2.767-2.926-2.768zm0 4.86c-1.221 0-2.211-.936-2.211-2.091 0-1.155.99-2.091 2.21-2.091 1.221 0 2.211.936 2.211 2.09-.001 1.155-.99 2.09-2.21 2.092z"/></g><defs><clipPath id="clip0"><path fill="#fff" d="M0 .069h29.333v27.747H0z"/></clipPath></defs></svg>