<svg width="50" height="51" fill="none" xmlns="http://www.w3.org/2000/svg"><path d="M20.703 23.854a.668.668 0 0 1 .065-.459c.076-.14.2-.251.351-.313l1.158-.47a1.861 1.861 0 0 1 1.354-.022 1.855 1.855 0 0 1 1.354.022l1.158.47a.7.7 0 0 1 .35.313c.077.14.1.303.066.459-.014.066-.377 1.616-2.926 1.616-2.55 0-2.916-1.55-2.93-1.616zm3.028-2.121h.784a.711.711 0 0 0 .497-.2.675.675 0 0 0 0-.967.711.711 0 0 0-.497-.2h-.752l.28-1.8a.67.67 0 0 0-.128-.508.715.715 0 0 0-.981-.145.68.68 0 0 0-.278.448l-.285 1.831a1.307 1.307 0 0 0 .318 1.074c.129.146.288.264.468.344.18.08.376.122.574.122v0zM17.364 41.79h1.06a.711.711 0 0 0 .496-.2.675.675 0 0 0 0-.967.71.71 0 0 0-.496-.2h-1.06a.71.71 0 0 0-.496.2.675.675 0 0 0 0 .967c.132.128.31.2.497.2zM.68 44.167a9.28 9.28 0 0 1 2.503-6.35 9.755 9.755 0 0 1 6.242-3.05l5.978-.574a2.12 2.12 0 0 0 1.262-.568c.342-.324.561-.752.62-1.213l.387-2.95a9.25 9.25 0 0 1-2.76-3.557 13.991 13.991 0 0 1-3.255-4.095 3.355 3.355 0 0 1-1.693-1.937 3.253 3.253 0 0 1 .205-2.536 14.772 14.772 0 0 1-.189-2.313C9.98 7.22 16.103.873 23.631.873c2.947 0 5.806.975 8.11 2.766a14.162 14.162 0 0 1 3.98 4.805c.082.162.095.35.035.522a.69.69 0 0 1-.353.394.718.718 0 0 1-.536.034.696.696 0 0 1-.404-.344 12.844 12.844 0 0 0-2.716-3.6c-1.018 2.332-3.978 2.5-6.141 3.068a26.407 26.407 0 0 0 2.61 2.113c.91.644 1.881 1.169 2.841 1.737a12.373 12.373 0 0 1 2.232 1.647c.396.375 1.037.926 1.066 1.497a3.598 3.598 0 0 1 1.488.486 13.379 13.379 0 0 0-.314-4.026.667.667 0 0 1 .086-.52.69.69 0 0 1 .44-.306.72.72 0 0 1 .532.09.694.694 0 0 1 .31.432c.436 1.86.503 3.783.197 5.666.41.786.485 1.7.206 2.538a3.355 3.355 0 0 1-1.695 1.939 13.99 13.99 0 0 1-3.256 4.096 9.253 9.253 0 0 1-2.759 3.558l.28 2.133c1.547.173 3.035.678 4.357 1.478a8.546 8.546 0 0 1 4.024-5.062.713.713 0 0 1 .703 0 8.546 8.546 0 0 1 4.023 5.062 10.778 10.778 0 0 1 5.61-1.557c.186 0 .364.072.496.2a.675.675 0 0 1 .206.483v.164a10.222 10.222 0 0 1-2.731 6.944 6.389 6.389 0 0 1 2.636 2.444.67.67 0 0 1 0 .686 6.414 6.414 0 0 1-2.611 2.429v5.32a.675.675 0 0 1-.206.484.711.711 0 0 1-.496.2H1.38a.711.711 0 0 1-.497-.2.675.675 0 0 1-.205-.483v-6.023zm36.578-1.47a10.885 10.885 0 0 1-5.538-2.366 5.107 5.107 0 0 0-2.27 1.766 5.004 5.004 0 0 0 1.635 1.467 5.172 5.172 0 0 0 4.323.332 5.04 5.04 0 0 0 1.85-1.2zm1.608.88v5.929h6.314v-4.11a6.697 6.697 0 0 1-3.41-.077 6.56 6.56 0 0 1-2.904-1.743zm6.622-3.248a10.885 10.885 0 0 1-5.54 2.367 5.073 5.073 0 0 0 1.852 1.195 5.186 5.186 0 0 0 4.32-.333 5.016 5.016 0 0 0 1.638-1.463 5.036 5.036 0 0 0-2.27-1.765v0zm-4.506.776a9.398 9.398 0 0 0 4.787-3.024 9.002 9.002 0 0 0 2.1-5.169 9.324 9.324 0 0 0-4.61 1.613 8.35 8.35 0 0 1-.422 3.525 8.51 8.51 0 0 1-1.854 3.055h0zm-5.673-5.601a7.046 7.046 0 0 0 .923 3.284 7.262 7.262 0 0 0 2.371 2.502 7.176 7.176 0 0 0 2.42-2.564 6.957 6.957 0 0 0 .876-3.377c0-1.179-.301-2.34-.877-3.377a7.176 7.176 0 0 0-2.419-2.564 7.257 7.257 0 0 0-2.445 2.638 7.04 7.04 0 0 0-.85 3.458zm-1.363-.977a9.32 9.32 0 0 0-4.61-1.613 8.952 8.952 0 0 0 1.197 3.898 9.214 9.214 0 0 0 2.819 3.003 9.364 9.364 0 0 0 2.872 1.288 8.495 8.495 0 0 1-1.842-3.019 8.335 8.335 0 0 1-.44-3.486c.003-.024.002-.048.005-.073l-.001.002zm-.986-17.746c.003-.358.009-.717 0-1.075a8.811 8.811 0 0 0-2.473-2.075c-1.18-.718-2.382-1.367-3.498-2.187a7.683 7.683 0 0 0 2.231 3.47 7.987 7.987 0 0 0 3.74 1.867zm-7.91-6.897c-.33-.29-.652-.586-.964-.895a21.48 21.48 0 0 0-8.98 6.412c2.567-.318 7.711-1.458 9.944-5.517zm8.73 12.293c-.024 0-.048-.008-.072-.01-.065-.006-.128-.016-.191-.026-.047-.007-.094-.01-.14-.018l-.205.915c.214-.278.417-.565.609-.861zm2.282-3.335a1.966 1.966 0 0 0-.488-1.273 2.062 2.062 0 0 0-1.21-.674 9.215 9.215 0 0 1-.216 1.797l-.47 2.09a2.04 2.04 0 0 0 1.93-.697c.293-.35.454-.79.455-1.243zm-24.681-3.819c0 .323.012.649.037.977a3.53 3.53 0 0 1 1.83-.5 22.556 22.556 0 0 1 2.964-3.26 22.173 22.173 0 0 1 7.234-4.479c1.445-.533 2.952-.725 4.428-1.142 1.099-.312 2.486-.887 2.7-2.128a11.795 11.795 0 0 0-6.944-2.25c-6.754 0-12.25 5.734-12.25 12.782zm-.183 3.819c.003.288.07.571.197.831a2 2 0 0 0 .536.675 2.096 2.096 0 0 0 1.651.436l-.469-2.091a9.224 9.224 0 0 1-.216-1.797 2.095 2.095 0 0 0-.805.315 2.04 2.04 0 0 0-.6.61 1.92 1.92 0 0 0-.294 1.02zm2.28 3.335c.192.297.396.584.61.862l-.205-.916c-.046.009-.093.011-.14.018-.063.01-.127.02-.191.026-.025.002-.049.008-.073.01v0zm5.297 6.391c.747.488 1.549.89 2.39 1.198 1.626.508 3.375.5 4.995-.022.818-.306 1.598-.7 2.325-1.176a7.887 7.887 0 0 0 2.869-3.963c.069-.214.13-.443.18-.664l.637-2.847.003-.007.602-2.684c.018-.082.032-.165.048-.248a10.134 10.134 0 0 1-3.518-1.445.674.674 0 0 1-.253.417c-.5.35-1.103.53-1.718.513-1.17 0-2.159-.582-2.159-1.271 0-.155.054-.305.152-.426a.719.719 0 0 1 .851-.192.694.694 0 0 1 .33.318c.247.147.536.218.826.204.3.017.597-.06.848-.22a.705.705 0 0 1 .16-.088A9.546 9.546 0 0 1 25.6 11.61c-1.729 2.349-4.3 3.655-6.624 4.38.036.018.07.04.102.063.251.16.548.237.848.22.29.014.579-.057.827-.205a.693.693 0 0 1 .328-.317.719.719 0 0 1 .852.192.673.673 0 0 1 .152.425c0 .69-.989 1.272-2.16 1.272a2.864 2.864 0 0 1-1.717-.517.667.667 0 0 1-.176-.868 21.11 21.11 0 0 1-3.728.604 7.784 7.784 0 0 0 .181 1.54l.602 2.683.003.008.637 2.851a7.706 7.706 0 0 0 .391 1.24c.009.021.014.04.022.06a7.884 7.884 0 0 0 2.635 3.327zM2.082 49.506h6.315v-8.399c0-.18.074-.355.205-.483a.71.71 0 0 1 .496-.2h5.306a.71.71 0 0 1 .496.2.674.674 0 0 1 0 .967.71.71 0 0 1-.496.2H9.8v7.715h27.663V44.35c-.7.503-1.497.864-2.344 1.061a6.643 6.643 0 0 1-2.583.085 6.58 6.58 0 0 1-2.412-.907 6.405 6.405 0 0 1-1.856-1.753c-.216-.309-.474-.661-.278-1.045h-6.605a.711.711 0 0 1-.496-.2.675.675 0 0 1 0-.967.71.71 0 0 1 .496-.2h7.684a6.478 6.478 0 0 1 1.57-1.114 10.379 10.379 0 0 1-2.362-4.268c-.204-.75-.322-1.52-.353-2.296-.019-.459-.059-1.065.525-1.205l-.16-1.214a9.822 9.822 0 0 1-4.659 1.172 9.822 9.822 0 0 1-4.658-1.172l-.297 2.262a3.37 3.37 0 0 1-1.032 2.022 3.53 3.53 0 0 1-2.104.947l-5.977.57a8.342 8.342 0 0 0-5.338 2.607 7.935 7.935 0 0 0-2.141 5.432v5.339z" fill="#fff" stroke="#fff" stroke-width=".4"/></svg>