<svg width="25" height="27" fill="none" xmlns="http://www.w3.org/2000/svg"><path d="M4.85 20.006a.397.397 0 0 0-.55.143 1.814 1.814 0 0 1-3.38-.92.396.396 0 0 0-.399-.4c-.4 0-.4.4-.4.4 0 .726.297 1.418.83 1.915a2.617 2.617 0 0 0 3.693-.126c.04.046.085.086.131.132a2.606 2.606 0 0 0 3.688-.132c.04.046.086.086.131.132a2.605 2.605 0 0 0 3.688-.132c.04.046.086.086.132.132a2.605 2.605 0 0 0 3.688-.132 2.61 2.61 0 0 0 3.133.526.404.404 0 0 0 .166-.543.404.404 0 0 0-.544-.166 1.837 1.837 0 0 1-.846.212 1.83 1.83 0 0 1-1.566-.898.428.428 0 0 0-.143-.143.397.397 0 0 0-.55.143 1.812 1.812 0 0 1-3.127 0 .428.428 0 0 0-.143-.143.397.397 0 0 0-.549.143 1.812 1.812 0 0 1-3.127 0 .427.427 0 0 0-.143-.143.397.397 0 0 0-.549.143 1.812 1.812 0 0 1-3.127 0 .33.33 0 0 0-.138-.143zm5.277-4.835l1.052.99.857.725a.395.395 0 0 0 .48.006 21.291 21.291 0 0 0 3.214-3.002c2.127-2.424 3.247-4.888 3.247-7.124A6.693 6.693 0 0 0 12.282.071a6.698 6.698 0 0 0-6.7 6.695c0 2.144 1.091 4.5 3.247 7.01a40.26 40.26 0 0 0 1.298 1.395zM12.282.866c3.26 0 5.9 2.636 5.9 5.895v.005c0 4.391-4.75 8.394-5.888 9.291-1.133-.937-5.907-5.145-5.907-9.29C6.382 3.512 9.023.871 12.282.865z" fill="#666A74"/><path d="M19.706 20.006a.397.397 0 0 1 .55.143 1.814 1.814 0 0 0 3.379-.92c0-.223.177-.4.4-.4.4 0 .4.4.4.4 0 .726-.298 1.418-.83 1.915a2.617 2.617 0 0 1-3.693-.126c-.04.046-.086.086-.131.132a2.605 2.605 0 0 1-3.688-.132c-.04.046-.086.086-.132.132a2.605 2.605 0 0 1-3.688-.132c-.04.046-.085.086-.131.132a2.605 2.605 0 0 1-3.688-.132 2.61 2.61 0 0 1-3.133.526.404.404 0 0 1-.166-.543.404.404 0 0 1 .543-.166c.263.137.555.212.847.212a1.83 1.83 0 0 0 1.566-.898.427.427 0 0 1 .143-.143.397.397 0 0 1 .549.143c.154.269.377.492.646.646a1.812 1.812 0 0 0 2.482-.646.426.426 0 0 1 .142-.143.397.397 0 0 1 .55.143 1.812 1.812 0 0 0 3.128 0 .426.426 0 0 1 .142-.143.397.397 0 0 1 .549.143c.154.269.377.492.646.646a1.812 1.812 0 0 0 2.481-.646.33.33 0 0 1 .137-.143zM4.85 24.168a.397.397 0 0 0-.55.143 1.814 1.814 0 0 1-3.38-.92.396.396 0 0 0-.399-.4c-.4 0-.4.4-.4.4 0 .726.297 1.418.83 1.915a2.617 2.617 0 0 0 3.693-.126c.04.046.085.086.131.132a2.605 2.605 0 0 0 3.688-.132c.04.046.086.086.131.132a2.605 2.605 0 0 0 3.688-.132c.04.046.086.086.132.132a2.605 2.605 0 0 0 3.688-.132 2.61 2.61 0 0 0 3.133.526.404.404 0 0 0 .166-.543.404.404 0 0 0-.544-.166 1.837 1.837 0 0 1-.846.212 1.83 1.83 0 0 1-1.566-.898.428.428 0 0 0-.143-.143.397.397 0 0 0-.55.143 1.812 1.812 0 0 1-3.127 0 .428.428 0 0 0-.143-.143.397.397 0 0 0-.549.143 1.812 1.812 0 0 1-3.127 0 .427.427 0 0 0-.143-.143.397.397 0 0 0-.549.143 1.812 1.812 0 0 1-3.127 0 .33.33 0 0 0-.138-.143z" fill="#666A74"/><path d="M19.706 24.168a.397.397 0 0 1 .55.143 1.814 1.814 0 0 0 3.379-.92c0-.223.177-.4.4-.4.4 0 .4.4.4.4 0 .726-.298 1.418-.83 1.915a2.617 2.617 0 0 1-3.693-.126c-.04.046-.086.086-.131.132a2.605 2.605 0 0 1-3.688-.132c-.04.046-.086.086-.132.132a2.605 2.605 0 0 1-3.688-.132c-.04.046-.085.086-.131.132a2.605 2.605 0 0 1-3.688-.132 2.61 2.61 0 0 1-3.133.526.404.404 0 0 1-.166-.543.404.404 0 0 1 .543-.166c.263.137.555.212.847.212a1.83 1.83 0 0 0 1.566-.898.427.427 0 0 1 .143-.143.397.397 0 0 1 .549.143c.154.269.377.492.646.646a1.812 1.812 0 0 0 2.482-.646.427.427 0 0 1 .142-.143.397.397 0 0 1 .55.143 1.812 1.812 0 0 0 3.128 0 .427.427 0 0 1 .142-.143.397.397 0 0 1 .549.143c.154.269.377.492.646.646a1.812 1.812 0 0 0 2.481-.646.33.33 0 0 1 .137-.143z" fill="#666A74"/><path d="M4.85 20.006a.397.397 0 0 0-.55.143 1.814 1.814 0 0 1-3.38-.92.396.396 0 0 0-.399-.4c-.4 0-.4.4-.4.4 0 .726.297 1.418.83 1.915a2.617 2.617 0 0 0 3.693-.126c.04.046.085.086.131.132a2.606 2.606 0 0 0 3.688-.132c.04.046.086.086.131.132a2.605 2.605 0 0 0 3.688-.132c.04.046.086.086.132.132a2.605 2.605 0 0 0 3.688-.132 2.61 2.61 0 0 0 3.133.526.404.404 0 0 0 .166-.543.404.404 0 0 0-.544-.166 1.837 1.837 0 0 1-.846.212 1.83 1.83 0 0 1-1.566-.898.428.428 0 0 0-.143-.143.397.397 0 0 0-.55.143 1.812 1.812 0 0 1-3.127 0 .428.428 0 0 0-.143-.143.397.397 0 0 0-.549.143 1.812 1.812 0 0 1-3.127 0 .427.427 0 0 0-.143-.143.397.397 0 0 0-.549.143 1.812 1.812 0 0 1-3.127 0 .33.33 0 0 0-.138-.143zm5.277-4.835l1.052.99.857.725a.395.395 0 0 0 .48.006 21.291 21.291 0 0 0 3.214-3.002c2.127-2.424 3.247-4.888 3.247-7.124A6.693 6.693 0 0 0 12.282.071a6.698 6.698 0 0 0-6.7 6.695c0 2.144 1.091 4.5 3.247 7.01a40.26 40.26 0 0 0 1.298 1.395zM12.282.866c3.26 0 5.9 2.636 5.9 5.895v.005c0 4.391-4.75 8.394-5.888 9.291-1.133-.937-5.907-5.145-5.907-9.29C6.382 3.512 9.023.871 12.282.865z" stroke="#fff" stroke-width=".1"/><path d="M19.706 20.006a.397.397 0 0 1 .55.143 1.814 1.814 0 0 0 3.379-.92c0-.223.177-.4.4-.4.4 0 .4.4.4.4 0 .726-.298 1.418-.83 1.915a2.617 2.617 0 0 1-3.693-.126c-.04.046-.086.086-.131.132a2.605 2.605 0 0 1-3.688-.132c-.04.046-.086.086-.132.132a2.605 2.605 0 0 1-3.688-.132c-.04.046-.085.086-.131.132a2.605 2.605 0 0 1-3.688-.132 2.61 2.61 0 0 1-3.133.526.404.404 0 0 1-.166-.543.404.404 0 0 1 .543-.166c.263.137.555.212.847.212a1.83 1.83 0 0 0 1.566-.898.427.427 0 0 1 .143-.143.397.397 0 0 1 .549.143c.154.269.377.492.646.646a1.812 1.812 0 0 0 2.482-.646.426.426 0 0 1 .142-.143.397.397 0 0 1 .55.143 1.812 1.812 0 0 0 3.128 0 .426.426 0 0 1 .142-.143.397.397 0 0 1 .549.143c.154.269.377.492.646.646a1.812 1.812 0 0 0 2.481-.646.33.33 0 0 1 .137-.143zM4.85 24.168a.397.397 0 0 0-.55.143 1.814 1.814 0 0 1-3.38-.92.396.396 0 0 0-.399-.4c-.4 0-.4.4-.4.4 0 .726.297 1.418.83 1.915a2.617 2.617 0 0 0 3.693-.126c.04.046.085.086.131.132a2.605 2.605 0 0 0 3.688-.132c.04.046.086.086.131.132a2.605 2.605 0 0 0 3.688-.132c.04.046.086.086.132.132a2.605 2.605 0 0 0 3.688-.132 2.61 2.61 0 0 0 3.133.526.404.404 0 0 0 .166-.543.404.404 0 0 0-.544-.166 1.837 1.837 0 0 1-.846.212 1.83 1.83 0 0 1-1.566-.898.428.428 0 0 0-.143-.143.397.397 0 0 0-.55.143 1.812 1.812 0 0 1-3.127 0 .428.428 0 0 0-.143-.143.397.397 0 0 0-.549.143 1.812 1.812 0 0 1-3.127 0 .427.427 0 0 0-.143-.143.397.397 0 0 0-.549.143 1.812 1.812 0 0 1-3.127 0 .33.33 0 0 0-.138-.143z" stroke="#fff" stroke-width=".1"/><path d="M19.706 24.168a.397.397 0 0 1 .55.143 1.814 1.814 0 0 0 3.379-.92c0-.223.177-.4.4-.4.4 0 .4.4.4.4 0 .726-.298 1.418-.83 1.915a2.617 2.617 0 0 1-3.693-.126c-.04.046-.086.086-.131.132a2.605 2.605 0 0 1-3.688-.132c-.04.046-.086.086-.132.132a2.605 2.605 0 0 1-3.688-.132c-.04.046-.085.086-.131.132a2.605 2.605 0 0 1-3.688-.132 2.61 2.61 0 0 1-3.133.526.404.404 0 0 1-.166-.543.404.404 0 0 1 .543-.166c.263.137.555.212.847.212a1.83 1.83 0 0 0 1.566-.898.427.427 0 0 1 .143-.143.397.397 0 0 1 .549.143c.154.269.377.492.646.646a1.812 1.812 0 0 0 2.482-.646.427.427 0 0 1 .142-.143.397.397 0 0 1 .55.143 1.812 1.812 0 0 0 3.128 0 .427.427 0 0 1 .142-.143.397.397 0 0 1 .549.143c.154.269.377.492.646.646a1.812 1.812 0 0 0 2.481-.646.33.33 0 0 1 .137-.143z" stroke="#fff" stroke-width=".1"/><path d="M12.557 5.713l-1.75 1.056-.417-.715 2.266-1.408h.89v7.6h-.99V5.714z" fill="#666A74"/></svg>