<svg width="23" height="23" fill="none" xmlns="http://www.w3.org/2000/svg"><g clip-path="url(#clip0)" fill="#565B65" stroke="#fff" stroke-width=".3"><path d="M17.787 5.328v-5.2H.988v12.933H3.61v4.533l2.578-1.987v2.61h8.32l5.858 3.912v-3.912h2.621V5.327h-5.199zM4.898 14.973v-3.192h-2.62V1.418h14.22v10.354H9.053l-4.155 3.201zm16.8 1.955h-2.622v2.79l-4.179-2.79H7.476v-2.314l2.016-1.553h8.295V6.617h3.91v10.311z"/><path d="M13.921 4.039H4.898v1.289h9.023v-1.29zm-2.578 3.867H4.898v1.288h6.445V7.906zm2.578 0h-1.289v1.288h1.29V7.906z"/></g><defs><clipPath id="clip0"><path fill="#fff" d="M.988.129h22v22h-22z"/></clipPath></defs></svg>