<svg width="9" height="13" fill="none" xmlns="http://www.w3.org/2000/svg"><path d="M2.652 11.054h1.313v1.312h1.312v-1.312H6.59a1.969 1.969 0 0 0 1.969-1.969V7.772a1.969 1.969 0 0 0-1.97-1.968H2.653a.656.656 0 0 1-.656-.657V3.835a.656.656 0 0 1 .656-.656H6.59a.656.656 0 0 1 .656.656v.656H8.56v-.656a1.969 1.969 0 0 0-1.97-1.969H5.278V.554H3.965v1.312H2.652A1.969 1.969 0 0 0 .684 3.835v1.312a1.969 1.969 0 0 0 1.968 1.97H6.59a.656.656 0 0 1 .656.655v1.313a.656.656 0 0 1-.656.656H2.652a.656.656 0 0 1-.656-.656v-.656H.684v.656a1.969 1.969 0 0 0 1.968 1.969z" fill="#565B65"/></svg>