<svg width="32" height="29" fill="none" xmlns="http://www.w3.org/2000/svg"><path d="M31.2 26.99h-1.745a2.522 2.522 0 0 0 .007-2.96c.383-.087.75-.26 1.07-.517a.777.777 0 0 0 .02-1.201l-4.192-3.584a2.243 2.243 0 0 1-.669-.992l-.98-2.924v-.003l-.882-2.633a3.953 3.953 0 0 0-2.557-2.509l-3.037-.953a3.208 3.208 0 0 0 1.364-2.625V3.981c0-1.77-1.44-3.21-3.21-3.21s-3.21 1.44-3.21 3.21v2.108c0 1.034.491 1.955 1.252 2.542a7.041 7.041 0 0 0-.235.07l-3.08.966a3.953 3.953 0 0 0-2.557 2.51l-1.863 5.56c-.129.384-.36.727-.669.991l-4.191 3.584a.777.777 0 0 0 .019 1.2c.336.27.721.447 1.122.53a2.796 2.796 0 0 0-.158 2.32c.088.234.205.444.346.629H1.188a.453.453 0 1 0 0 .906H31.2a.453.453 0 1 0 0-.906zM20.893 16.426l1.6 3.98a.45.45 0 0 0 .031.064c.283.472.686.862 1.166 1.13l.53.296-3.327-1.017v-4.453zm4.878 2.992l4.071 3.48a1.753 1.753 0 0 1-1.83.074l-3.88-2.163a2.246 2.246 0 0 1-.813-.775l-1.426-3.548 2.115-.923.824 2.462c.181.54.506 1.022.94 1.393zM14.084 6.089V3.981a2.307 2.307 0 0 1 2.305-2.305 2.307 2.307 0 0 1 2.305 2.305v2.108a2.307 2.307 0 0 1-2.305 2.305 2.307 2.307 0 0 1-2.304-2.305zm-2.697 4.442l3.08-.967a5.734 5.734 0 0 1 3.453 0l3.08.967a3.044 3.044 0 0 1 1.97 1.933l.749 2.236-2.164.944-.695-1.73a.453.453 0 0 0-.873.17v6.677h-7.586v-6.677a.453.453 0 0 0-.874-.17l-.601 1.497-2.137-1.069.629-1.878a3.044 3.044 0 0 1 1.969-1.933zm-4.771 8.886c.433-.37.758-.852.94-1.393l.942-2.814 2.089 1.045-.33.819a.453.453 0 0 0 .841.338l.397-.987v4.452l-3.263.981.465-.26c.48-.267.883-.657 1.166-1.128a.453.453 0 0 0 .032-.065l1.203-2.993c.093-.232-.184-.245-.417-.338-.232-.094-.33-.232-.423 0l-1.19 2.959c-.2.322-.48.59-.812.775l-3.88 2.162a1.753 1.753 0 0 1-1.83-.073l4.07-3.48zM5.063 26.99h-.001c-.659 0-1.167-.346-1.396-.95a1.9 1.9 0 0 1 .43-1.993l7.918-2.382h8.358l7.518 2.296a1.59 1.59 0 0 1 1.116 1.25 1.588 1.588 0 0 1-.594 1.565l-.273.214h-9.564c-.058-.318-.2-.74-.533-1.116l.902-.05a.453.453 0 1 0-.05-.904l-2.454.136a4.342 4.342 0 0 0-.326-.046l-6.986-.73a.452.452 0 1 0-.094.901l6.986.73c.106.01.205.026.298.044h.006c.904.178 1.222.67 1.332 1.035H5.063z" fill="#666A74"/><path d="M10.258 17.074l.329-.82-2.09-1.044-.942 2.814a3.147 3.147 0 0 1-.939 1.393l-4.07 3.48a1.753 1.753 0 0 0 1.83.073l3.88-2.162c.332-.185.612-.453.813-.775l1.189-2.96zm0 0a.453.453 0 0 0 .84.338m-.84-.338c.093-.232.191-.094.424 0 .232.093.51.105.416.338m0 0l.397-.987v4.452l-3.263.981.465-.26c.48-.267.883-.657 1.166-1.128a.453.453 0 0 0 .032-.065l1.203-2.993zM31.2 26.99h-1.745a2.522 2.522 0 0 0 .007-2.96c.383-.088.75-.261 1.07-.518a.777.777 0 0 0 .02-1.201l-4.192-3.584a2.243 2.243 0 0 1-.669-.992l-.98-2.924v-.003l-.882-2.633a3.953 3.953 0 0 0-2.557-2.509l-3.037-.953a3.208 3.208 0 0 0 1.364-2.625V3.981c0-1.77-1.44-3.21-3.21-3.21s-3.21 1.44-3.21 3.21v2.108c0 1.034.491 1.955 1.252 2.542a7.041 7.041 0 0 0-.235.07l-3.08.966a3.953 3.953 0 0 0-2.557 2.51l-1.863 5.56c-.129.384-.36.727-.669.991l-4.191 3.584a.777.777 0 0 0 .019 1.2c.336.27.721.447 1.122.53a2.796 2.796 0 0 0-.158 2.32c.088.234.205.444.346.629H1.188a.453.453 0 1 0 0 .906H31.2a.453.453 0 1 0 0-.906zM20.893 16.425l1.6 3.98a.45.45 0 0 0 .031.064c.283.472.686.862 1.166 1.13l.53.296-3.327-1.017v-4.453zm4.878 2.992l4.071 3.48a1.753 1.753 0 0 1-1.83.074l-3.88-2.163a2.246 2.246 0 0 1-.813-.775l-1.426-3.548 2.115-.923.824 2.462c.181.54.506 1.022.94 1.393zM14.084 6.089V3.981a2.307 2.307 0 0 1 2.305-2.305 2.307 2.307 0 0 1 2.305 2.305v2.108a2.307 2.307 0 0 1-2.305 2.305 2.307 2.307 0 0 1-2.304-2.305zm-2.697 4.442l3.08-.967a5.734 5.734 0 0 1 3.453 0l3.08.967a3.044 3.044 0 0 1 1.97 1.933l.749 2.236-2.164.944-.695-1.73a.453.453 0 0 0-.873.17v6.677h-7.586v-6.677a.453.453 0 0 0-.874-.17l-.601 1.497-2.137-1.069.629-1.878a3.044 3.044 0 0 1 1.969-1.933zm-6.324 16.46h-.001c-.659 0-1.167-.346-1.396-.95a1.9 1.9 0 0 1 .43-1.993l7.918-2.382h8.358l7.518 2.296a1.59 1.59 0 0 1 1.116 1.25 1.588 1.588 0 0 1-.594 1.565l-.273.214h-9.564c-.058-.318-.2-.74-.533-1.116l.902-.05a.453.453 0 1 0-.05-.904l-2.454.136a4.342 4.342 0 0 0-.326-.046l-6.986-.73a.452.452 0 1 0-.094.901l6.986.73c.106.01.205.026.298.044h.006c.904.178 1.222.67 1.332 1.035H5.063z" stroke="#fff" stroke-width=".3"/></svg>