<svg width="20" height="16" fill="none" xmlns="http://www.w3.org/2000/svg"><path d="M12.355 5.537a.417.417 0 0 0-.589.59c.472.47.732 1.098.732 1.767 0 1.378-1.121 2.5-2.5 2.5a2.48 2.48 0 0 1-1.767-.733.417.417 0 0 0-.59.59 3.31 3.31 0 0 0 2.357.976 3.337 3.337 0 0 0 3.334-3.333c0-.891-.347-1.729-.977-2.357zm-1.773-.919a3.34 3.34 0 0 0-.58-.058 3.337 3.337 0 0 0-3.334 3.333c0 .199.024.392.058.581a.417.417 0 0 0 .82-.145 2.416 2.416 0 0 1-.045-.436c0-1.378 1.122-2.5 2.5-2.5.15 0 .294.02.436.045a.416.416 0 1 0 .145-.82z" fill="#AAB0C4"/><path d="M19.9 7.624c-.095-.111-2.35-2.742-5.458-4.353a.417.417 0 0 0-.383.74c2.395 1.24 4.309 3.176 4.963 3.883-.994 1.075-4.903 5-9.024 5-1.398 0-2.807-.338-4.19-1.005a.416.416 0 1 0-.362.75c1.496.723 3.028 1.088 4.552 1.088 5.135 0 9.71-5.337 9.902-5.564a.416.416 0 0 0 0-.539zM12.735 2.54c-.949-.32-1.869-.48-2.735-.48C4.866 2.06.29 7.397.098 7.624a.417.417 0 0 0-.023.508c.058.083 1.435 2.038 3.823 3.624a.413.413 0 0 0 .577-.117.416.416 0 0 0-.117-.577A15.239 15.239 0 0 1 .955 7.916C1.915 6.874 5.85 2.893 10 2.893c.776 0 1.607.147 2.469.436a.411.411 0 0 0 .527-.261.416.416 0 0 0-.261-.528z" fill="#AAB0C4"/><path d="M17.378.516a.417.417 0 0 0-.589 0L2.622 14.683a.417.417 0 0 0 .59.59L17.377 1.104a.417.417 0 0 0 0-.59z" fill="#AAB0C4"/></svg>