<svg width="21" height="21" fill="none" xmlns="http://www.w3.org/2000/svg"><g clip-path="url(#clip0)" fill="#fff" opacity=".5"><path fill-rule="evenodd" clip-rule="evenodd" d="M-.945-.988h22v22h-9.157v-2h7.157v-18h-18v18h8.25v2H-.945v-22z"/><path d="M9.508 12.902v7.11l-1.172-.172v-5.766H5.992V9.387h2.344V7.629a4.106 4.106 0 0 1 4.101-4.102h4.102v4.688h-3.516v1.172h3.622l-.781 4.687h-2.84v5.766l-1.172.172v-7.11h3.019l.39-2.343h-3.41V8.215c0-.646.526-1.172 1.172-1.172h2.344V4.699h-2.93a2.933 2.933 0 0 0-2.93 2.93v2.93H7.165v2.343h2.344z"/></g><defs><clipPath id="clip0"><path fill="#fff" d="M.055.012h20v20h-20z"/></clipPath></defs></svg>