<svg width="46" height="43" fill="none" xmlns="http://www.w3.org/2000/svg"><path d="M38.9 23.113l.158.487a.792.792 0 0 0 1.518-.453c0-.011-.01-.023-.01-.034l-.16-.487a.792.792 0 0 0-1.517.453c.01.011.01.023.01.034zm6.446 14.942L41.358 25.57a.787.787 0 0 0-.997-.51.787.787 0 0 0-.51.997l3.478 10.898a9.112 9.112 0 0 0-4.826.532L36.861 26.93a.793.793 0 0 0-.906-.657.793.793 0 0 0-.657.907l1.721 11.044c-.158.103-.305.193-.441.306a8.326 8.326 0 0 1-8.69.975.782.782 0 0 0-1.053.373.782.782 0 0 0 .374 1.054 9.458 9.458 0 0 0 4.192.951 10.143 10.143 0 0 0 6.14-2.107c2.175-1.653 5.448-1.642 6.604-.838.362.25.85.17 1.11-.192a.865.865 0 0 0 .09-.691zM27.617 27.168l-1.79 11.487a.791.791 0 0 1-.782.668h-.01a.613.613 0 0 1-.465-.09c-2.005-1.1-4.713-1.065-5.789-.295a.799.799 0 0 1-1.11-.192.776.776 0 0 1-.102-.703l8.836-27.652V6.223a5.02 5.02 0 0 1 5.018-5.019h.068a5.02 5.02 0 0 1 5.019 5.019v1.586a.788.788 0 0 1-.793.792.788.788 0 0 1-.793-.792V6.234A3.437 3.437 0 0 0 31.49 2.8h-.068a3.437 3.437 0 0 0-3.432 3.433v3.5h.589V6.245a2.89 2.89 0 0 1 2.945-2.81 2.885 2.885 0 0 1 2.81 2.81v3.49h1.382c.34 0 .645.226.759.554l3.07 9.618a.807.807 0 0 1-.499 1.008.808.808 0 0 1-1.008-.498c0-.012 0-.012-.011-.023l-.646-2.005-3.308.691a3.038 3.038 0 0 1-4.123 1.144 3.079 3.079 0 0 1-1.145-1.144l-1.268-.272a.79.79 0 0 1-.612-.94.79.79 0 0 1 .94-.612l1.666.351a.78.78 0 0 1 .577.499 1.446 1.446 0 0 0 1.858.838c.385-.147.691-.453.838-.838a.804.804 0 0 1 .578-.499l3.534-.736-1.778-5.55h-7.363l-8.19 25.623a8.78 8.78 0 0 1 4.825.488l1.631-10.513a.793.793 0 0 1 .907-.657.793.793 0 0 1 .668.906zm2.549-17.434h2.583V6.245A1.292 1.292 0 0 0 31.412 5a1.297 1.297 0 0 0-1.246 1.246v3.49zM15.35.898a13.061 13.061 0 0 0-5.415.42c-.012 0-.023 0-.034.01a.799.799 0 0 0-.544.986c.125.42.566.669.986.544a11.6 11.6 0 0 1 4.746-.385c1.87.306 2.48 5.8 1.7 13.922-1.61-4.961-4.827-7.023-5.02-7.136-.033-.023-.067-.034-.101-.057l.136-1.269V7.9a.798.798 0 0 0-.725-.86.798.798 0 0 0-.861.724l-.136 1.269c-.034.011-.08.011-.113.034-.25.09-4.758 1.79-7.34 7.84-.307-4.577-.284-7.76.056-8.927.249-.827 1.144-1.824 2.47-2.753a.775.775 0 0 0 .192-1.099.775.775 0 0 0-1.099-.193c-1.155.805-2.64 2.085-3.081 3.603-.646 2.175-.25 8.553.192 13.56-.136.713-.26 1.46-.34 2.254a2.043 2.043 0 0 0 .748 1.801c.26 2.413 1.178 10.592 1.71 13.254.59 2.911 3.263 4.305 5.79 4.305.305 0 .611-.023.906-.057 2.492-.34 4.905-2.186 4.655-5.528a26.885 26.885 0 0 1 .76-8.066.798.798 0 0 0-.578-.94.79.79 0 0 0-.963.578 28.537 28.537 0 0 0-.804 8.541c.18 2.47-1.575 3.602-3.286 3.829-2.05.272-4.463-.668-4.927-2.98-.487-2.412-1.303-9.606-1.632-12.528a2.008 2.008 0 0 0 1.666-1.779c.69-6.502 3.681-9.3 5.347-10.365 1.415 1.393 3.75 4.758 3.07 11.26a2.027 2.027 0 0 0 1.812 2.232c.068.011.147.011.215.011a2.028 2.028 0 0 0 2.017-1.824c.102-.996.158-2.005.136-3.013C18.826 14.458 20.038 1.67 15.35.898zm.623 24.016a.44.44 0 0 1-.499.397.447.447 0 0 1-.396-.499c.838-7.94-2.538-11.736-4.022-13.005a.787.787 0 0 0-.895-.09c-1.722.929-5.811 3.942-6.65 11.883v.011a.448.448 0 0 1-.498.397.448.448 0 0 1-.396-.499c1.099-10.388 7.624-12.846 7.907-12.936a.565.565 0 0 1 .136-.023h.09c.023 0 .046 0 .057.011.045.012.09.023.136.046.25.158 6.117 3.908 5.03 14.307z" fill="#fff" stroke="#fff" stroke-width=".4"/></svg>