<svg width="21" height="21" fill="none" xmlns="http://www.w3.org/2000/svg"><path fill-rule="evenodd" clip-rule="evenodd" d="M19.781 1.012h-18v18h18v-18zm-19-1v20h20v-20h-20z" fill="#fff"/><path d="M10.78 15.285a5.28 5.28 0 0 0 5.273-5.273 5.28 5.28 0 0 0-5.274-5.274 5.28 5.28 0 0 0-5.273 5.274 5.28 5.28 0 0 0 5.273 5.273zm0-9.375a4.106 4.106 0 0 1 4.101 4.102 4.106 4.106 0 0 1-4.102 4.101 4.106 4.106 0 0 1-4.101-4.101 4.106 4.106 0 0 1 4.101-4.102z" fill="#fff"/><path fill-rule="evenodd" clip-rule="evenodd" d="M16.053 10.012a5.28 5.28 0 0 1-5.274 5.273 5.28 5.28 0 0 1-5.273-5.273 5.28 5.28 0 0 1 5.273-5.274 5.28 5.28 0 0 1 5.274 5.274zm-1.172 0a4.106 4.106 0 0 0-4.102-4.102 4.106 4.106 0 0 0-4.101 4.102 4.106 4.106 0 0 0 4.101 4.101 4.106 4.106 0 0 0 4.102-4.101z" fill="#fff"/><path d="M16.639 5.91a1.76 1.76 0 0 0 1.758-1.758 1.76 1.76 0 0 0-1.758-1.757 1.76 1.76 0 0 0-1.758 1.757c0 .97.789 1.758 1.758 1.758zm0-2.344a.587.587 0 1 1-.002 1.174.587.587 0 0 1 .002-1.174z" fill="#fff"/><path fill-rule="evenodd" clip-rule="evenodd" d="M18.397 4.152a1.76 1.76 0 0 1-1.758 1.758 1.76 1.76 0 0 1-1.758-1.758 1.759 1.759 0 0 1 3.516 0zm-1.172 0a.587.587 0 1 0-1.174.002.587.587 0 0 0 1.174-.002z" fill="#fff"/></svg>