<svg width="11" height="16" fill="none" xmlns="http://www.w3.org/2000/svg"><path d="M9.225 1.95A5.04 5.04 0 0 0 5.605.403a5.04 5.04 0 0 0-3.621 1.549C.18 3.813-.02 7.315 1.508 9.42l4.095 6.11 4.094-6.11c1.528-2.106 1.324-5.612-.475-7.47h.003zm-3.57 5.434c-.334 0-.66-.102-.938-.294a1.735 1.735 0 0 1-.623-.783 1.8 1.8 0 0 1-.096-1.009c.065-.339.226-.65.463-.894.236-.244.537-.41.865-.478a1.64 1.64 0 0 1 .976.1 1.7 1.7 0 0 1 .759.643 1.787 1.787 0 0 1-.21 2.204c-.157.162-.344.29-.549.378a1.643 1.643 0 0 1-.646.133z" fill="#C2C9DD"/></svg>