<svg width="34" height="34" fill="none" xmlns="http://www.w3.org/2000/svg"><path d="M29.88 21.333c-1.07-.982-2.492-1.545-3.902-1.545h-2.761c-.882 0-1.627.77-1.627 1.683-.002.257.059.51.177.74h-2.464a4.761 4.761 0 0 0 2.207-3.121l.555-2.552a.445.445 0 0 0-.434-.539h-2.106a3.58 3.58 0 0 0 .235-.881c.201-1.526-.62-3.058-1.998-3.728a.443.443 0 0 0-.175-.044 2.3 2.3 0 0 0-.562-.148l-6.81-.897a2.307 2.307 0 0 0-.545-.007.442.442 0 0 0-.177-.004c-1.524.272-2.73 1.542-2.934 3.089-.125.93.124 1.872.691 2.62H4.688a.444.444 0 0 0-.434.54l.555 2.55a4.761 4.761 0 0 0 2.207 3.122H5.979a4.077 4.077 0 0 0 0 8.154h20.332a5.293 5.293 0 0 0 3.748-1.53 5.209 5.209 0 0 0 1.552-3.73c0-1.409-.615-2.748-1.73-3.772zM8.531 12.385a1.398 1.398 0 0 1 1.569-1.203l6.809.897a1.398 1.398 0 0 1-.365 2.772l-6.81-.897a1.4 1.4 0 0 1-1.203-1.569zm-1.091 1.11a2.7 2.7 0 0 1 .2-.722 2.29 2.29 0 0 0 1.978 2.062l6.81.897a2.287 2.287 0 0 0 2.444-1.476A2.683 2.683 0 0 1 18.538 16H8.5a2.682 2.682 0 0 1-1.06-2.505zM5.677 18.9l-.437-2.013h15.839l-.437 2.013c-.442 2.032-2.239 3.294-4.69 3.294h-5.586c-2.45 0-4.247-1.262-4.689-3.294zm23.757 9.303a4.41 4.41 0 0 1-3.122 1.272H5.979a3.188 3.188 0 0 1 0-6.377h19.897a1.783 1.783 0 0 1 1.642 2.476c-.272.643-.898 1.042-1.633 1.042H9.512a.498.498 0 0 1 0-.995H19.63a.445.445 0 0 0 0-.889H9.513a1.386 1.386 0 1 0 0 2.773h16.372c1.099 0 2.038-.607 2.451-1.584a2.672 2.672 0 0 0-2.46-3.711h-2.63a.425.425 0 0 0-.029-.001c-.258 0-.739-.217-.739-.739 0-.422.345-.793.739-.793h2.76c2.528 0 4.745 2.068 4.745 4.427a4.324 4.324 0 0 1-1.288 3.099zm-6.545-23.55A2.256 2.256 0 0 0 22.34 5.7a1.303 1.303 0 0 0-1.377.394 1.34 1.34 0 0 0-.292 1.32 2.242 2.242 0 0 0 .034 4.382 1.342 1.342 0 0 0 .403 1.402 1.307 1.307 0 0 0 1.296.285 2.257 2.257 0 0 0 1.303 1.55c.278.119.577.18.88.178h.018a2.221 2.221 0 0 0 1.624-.715c.273-.295.462-.657.549-1.05a1.336 1.336 0 0 0 .39.059 1.304 1.304 0 0 0 .987-.452 1.34 1.34 0 0 0 .293-1.32 2.243 2.243 0 0 0-.035-4.382c.01-.036.02-.072.028-.11a1.339 1.339 0 0 0-.43-1.293 1.304 1.304 0 0 0-1.298-.283 2.244 2.244 0 0 0-3.824-1.012zm-.373 7.582l-.01.019-.008.017c-.01.02-.02.04-.028.061a.568.568 0 0 1-.377.316.414.414 0 0 1-.407-.126l-.02-.02a.457.457 0 0 1-.118-.416.568.568 0 0 1 .338-.402.443.443 0 0 0 .034-.015l.17-.092 1.035-.545-.61 1.203zm4.982.22a.38.38 0 0 1-.019.02l-.02.02a.415.415 0 0 1-.385.112.568.568 0 0 1-.381-.309 1.487 1.487 0 0 0-.03-.062l-.008-.017-.01-.018-.629-1.193 1.04.527.176.09.034.015a.568.568 0 0 1 .345.396.458.458 0 0 1-.113.42zm-.977-5.382l.092-.18a.43.43 0 0 0 .017-.037.575.575 0 0 1 .396-.357.415.415 0 0 1 .386.106l.02.02a.457.457 0 0 1 .139.436.568.568 0 0 1-.338.402.43.43 0 0 0-.033.016l-.256.136-.951.502.528-1.044zm.687 1.408l.007-.004.15-.08.246-.13a.638.638 0 0 1 .258-.073 1.358 1.358 0 0 1 1.438 1.341A1.355 1.355 0 0 1 27.89 10.9a.638.638 0 0 1-.259-.07l-.191-.097-.21-.107-.014-.006-1.16-.587c.047-.555 0-.662-.069-.888l-.005-.018 1.225-.646zm-1.269 4.403a1.357 1.357 0 0 1-1.34 1.438 1.354 1.354 0 0 1-1.366-1.415.632.632 0 0 1 .049-.212l.024-.053v-.001l.197-.383.017-.04.584-1.152c.455.097.889-.064.889-.064l.014-.004.634 1.202a.455.455 0 0 0 .019.04l.203.381.028.06a.626.626 0 0 1 .048.203zM23.955 9.58a.598.598 0 0 1 .253-.496.599.599 0 0 1 .346-.113h.005a.599.599 0 0 1 .49.254.6.6 0 0 1 .004.696l-.01.013a.61.61 0 0 1-.118.12l-.013.01a.6.6 0 0 1-.348.115h-.005a.6.6 0 0 1-.49-.253.598.598 0 0 1-.114-.346zm-.415-4.321a1.34 1.34 0 0 1 .98-.432h.011a1.34 1.34 0 0 1 .976.415 1.356 1.356 0 0 1 .377 1.001.638.638 0 0 1-.07.259l-.084.167-.113.221-.01.024-.624 1.23-.019-.005c-.19-.056-.322-.11-.889-.056l-.591-1.122a.452.452 0 0 0-.024-.053l-.203-.38a1.481 1.481 0 0 0-.04-.083.63.63 0 0 1-.039-.18 1.356 1.356 0 0 1 .362-1.006zm-.417 3.908c-.022.362-.051.504-.051.89l-1.152.607-.016.008-.243.129-.154.081a.647.647 0 0 1-.258.074 1.359 1.359 0 0 1-1.323-.807 1.354 1.354 0 0 1 1.3-1.899c.09.005.179.029.26.07l1.641.831-.004.016zm-.816-1.428l-.015-.009-.405-.206a.435.435 0 0 0-.034-.016.57.57 0 0 1-.345-.396.459.459 0 0 1 .112-.418l.02-.02.02-.02a.414.414 0 0 1 .384-.113.562.562 0 0 1 .367.28c.017.04.035.079.055.117l.635 1.203-.794-.402z" fill="#666A74" stroke="#fff" stroke-width=".3"/></svg>