<svg width="59" height="35" fill="none" xmlns="http://www.w3.org/2000/svg"><path d="M41.018 33.475a.99.99 0 0 1-1.473 1.07l-10.038-5.96-10.039 5.96a.99.99 0 0 1-1.473-1.07l2.568-11.39-8.77-7.705a.99.99 0 0 1 .563-1.731l11.623-1.079L28.597.847a.99.99 0 0 1 1.82 0l1.92 4.456a.991.991 0 0 1-1.821.784l-1.009-2.342-3.94 9.15a.991.991 0 0 1-.819.595l-9.92.92 7.485 6.574c.272.24.392.609.312.963l-2.19 9.72L29 26.58a.991.991 0 0 1 1.012 0l8.566 5.087-2.19-9.72a.99.99 0 0 1 .312-.962l7.486-6.574-9.921-.921a.99.99 0 0 1-.819-.595l-1.342-3.117a.992.992 0 0 1 1.82-.784l1.11 2.576 11.625 1.078a.992.992 0 0 1 .563 1.732l-8.77 7.705 2.565 11.39zm-24.047-9.81l-4.918-.455-1.953-4.537a.99.99 0 0 0-1.82 0l-1.955 4.536-4.92.456a.99.99 0 0 0-.562 1.73l1.79 1.572a.992.992 0 1 0 1.308-1.487l-.061-.054 3.213-.297a.99.99 0 0 0 .818-.595l1.277-2.963 1.275 2.963a.991.991 0 0 0 .82.595l3.212.297-2.425 2.131a.99.99 0 0 0-.312.962l.71 3.148-2.775-1.648a.991.991 0 0 0-1.013 0l-2.775 1.648.711-3.149a.991.991 0 0 0-1.932-.436l-1.216 5.393a.991.991 0 0 0 1.474 1.07l4.246-2.522 4.247 2.522a.992.992 0 0 0 1.473-1.07l-1.086-4.819 3.711-3.262a.992.992 0 0 0-.562-1.729zm41.49.681a.992.992 0 0 0-.852-.68l-4.919-.456-1.953-4.537a.991.991 0 0 0-1.82 0l-1.955 4.536-4.918.456a.99.99 0 0 0-.563 1.73l1.964 1.724a.99.99 0 0 0 1.658-.535.992.992 0 0 0-.35-.951l-.235-.207 3.213-.297a.992.992 0 0 0 .819-.595l1.276-2.963 1.276 2.963a.99.99 0 0 0 .818.595l3.213.297-2.425 2.13a.99.99 0 0 0-.312.962l.71 3.148-2.775-1.647a.99.99 0 0 0-1.013 0l-2.774 1.648.71-3.149a.991.991 0 0 0-1.933-.436l-1.215 5.393a.99.99 0 0 0 1.473 1.07l4.247-2.521 4.246 2.521a.99.99 0 0 0 1.474-1.07l-1.086-4.818 3.711-3.26a.99.99 0 0 0 .288-1.051h.002z" fill="#fff"/></svg>