<svg width="16" height="16" fill="none" xmlns="http://www.w3.org/2000/svg"><path d="M13.321 9.826a7.629 7.629 0 0 0-2.902-1.788 4.313 4.313 0 0 0 1.917-3.573c0-2.391-1.98-4.336-4.414-4.336-2.435 0-4.415 1.945-4.415 4.336 0 1.48.76 2.79 1.917 3.573-1.08.366-2.07.97-2.902 1.788a7.384 7.384 0 0 0-2.237 5.303h1.193c0-3.49 2.89-6.328 6.444-6.328 3.552 0 6.443 2.839 6.443 6.328h1.193a7.384 7.384 0 0 0-2.237-5.303zm-5.4-2.197c-1.776 0-3.221-1.42-3.221-3.164C4.7 2.72 6.145 1.3 7.922 1.3c1.776 0 3.221 1.42 3.221 3.164 0 1.745-1.445 3.164-3.221 3.164z" fill="#565B65"/></svg>