<svg width="44" height="51" fill="none" xmlns="http://www.w3.org/2000/svg"><path d="M4.439 50.873h35.025c.894 0 1.763-.313 2.461-.887a4.06 4.06 0 0 0 1.382-2.273 4.144 4.144 0 0 0-.305-2.662 3.991 3.991 0 0 0-1.858-1.881l-11.391-6.91v-3.33c.054 0 .11.005.163.005h9.345c.444.004.881-.117 1.263-.35.382-.232.695-.567.904-.97a2.556 2.556 0 0 0-.13-2.583l-.985-1.441a.652.652 0 0 0-.923-.16.698.698 0 0 0-.167.946l.99 1.444a1.145 1.145 0 0 1-.375 1.603 1.073 1.073 0 0 1-.576.144h-9.346a7.505 7.505 0 0 1-1.438-.142 7.18 7.18 0 0 1-4.154-2.493 7.53 7.53 0 0 1-1.706-4.62v-.042c-.001-.293.11-.573.31-.782a1.064 1.064 0 0 1 1.519-.023c.205.202.324.48.332.771a5.318 5.318 0 0 0 1.224 3.276 5.07 5.07 0 0 0 3.914 1.835h6.051a.66.66 0 0 0 .341-.104.685.685 0 0 0 .242-.268.707.707 0 0 0-.038-.704l-3.125-4.567h2.647l1.75 2.56a.677.677 0 0 0 .432.31.65.65 0 0 0 .515-.11.678.678 0 0 0 .277-.46.7.7 0 0 0-.136-.523l-1.922-2.816a.673.673 0 0 0-.038-.057l-4.773-6.988a3.765 3.765 0 0 0-1.333-1.2 3.654 3.654 0 0 0-1.72-.432H26.06a7.233 7.233 0 0 0 2.587-3.615 7.43 7.43 0 0 0 .018-4.488 7.237 7.237 0 0 0-2.56-3.636A6.928 6.928 0 0 0 21.95.86a6.929 6.929 0 0 0-4.154 1.39 7.237 7.237 0 0 0-2.56 3.636 7.429 7.429 0 0 0 .018 4.488 7.232 7.232 0 0 0 2.587 3.615h-3.03c-.599 0-1.19.149-1.72.433a3.765 3.765 0 0 0-1.334 1.199L2.596 29.037a2.56 2.56 0 0 0-.124 2.583c.21.401.524.736.906.968.381.232.818.353 1.261.35h9.348c.053 0 .109-.004.163-.005v3.327l-3.62 2.196a.682.682 0 0 0-.306.418.7.7 0 0 0 .071.518c.09.156.236.27.407.315a.65.65 0 0 0 .505-.074l3.79-2.3h13.908l11.59 7.032a.52.52 0 0 0 .06.032c.54.256.979.693 1.243 1.24.265.547.34 1.17.212 1.766a2.689 2.689 0 0 1-.912 1.512 2.564 2.564 0 0 1-1.634.592h-5.572c.088-.234.133-.482.135-.733v-3.177c0-.327-.074-.65-.217-.943a2.087 2.087 0 0 0-.607-.741 1.992 1.992 0 0 0-1.807-.327l-4.438 1.367-14.919-2.207a.653.653 0 0 0-.494.129.698.698 0 0 0-.134.957.663.663 0 0 0 .438.267l14.494 2.144v3.263H4.439a2.566 2.566 0 0 1-1.634-.591 2.69 2.69 0 0 1-.913-1.513 2.743 2.743 0 0 1 .212-1.766 2.64 2.64 0 0 1 1.243-1.24c.02-.01.04-.02.06-.032l3.343-2.028a.672.672 0 0 0 .306-.418.702.702 0 0 0-.071-.518.677.677 0 0 0-.407-.314.648.648 0 0 0-.505.073L2.758 43.17a3.992 3.992 0 0 0-1.857 1.881 4.144 4.144 0 0 0-.305 2.661 4.061 4.061 0 0 0 1.381 2.274 3.874 3.874 0 0 0 2.462.887zm11.043-18.068a8.515 8.515 0 0 0 3.888-1.788 8.832 8.832 0 0 0 2.58-3.481 8.817 8.817 0 0 0 2.58 3.484 8.498 8.498 0 0 0 3.892 1.786v3.16h-12.94v-3.16zm14.434-4.822c-.055 0-.11-.006-.164-.008V20.77l4.934 7.213h-4.77zM16.23 8.116a5.99 5.99 0 0 1 .962-3.262 5.757 5.757 0 0 1 2.564-2.165 5.582 5.582 0 0 1 3.302-.34 5.676 5.676 0 0 1 2.93 1.602 5.925 5.925 0 0 1 1.572 3.003 6.023 6.023 0 0 1-.317 3.393 5.846 5.846 0 0 1-2.097 2.642 5.615 5.615 0 0 1-3.173 1.001h-.044a5.652 5.652 0 0 1-4.029-1.73 5.963 5.963 0 0 1-1.67-4.144zm-3.382 8.29c.222-.323.517-.588.86-.77a2.353 2.353 0 0 1 1.108-.278h14.269c.385 0 .765.095 1.107.278.341.182.635.447.857.77l4.053 5.933h-2.649l-2.822-4.124a.668.668 0 0 0-.331-.254.65.65 0 0 0-.413-.004.666.666 0 0 0-.336.247.696.696 0 0 0-.13.404v9.062a3.798 3.798 0 0 1-1.655-1.388 3.95 3.95 0 0 1-.657-2.088 2.524 2.524 0 0 0-.212-.948 2.468 2.468 0 0 0-1.35-1.302 2.386 2.386 0 0 0-2.594.613 2.388 2.388 0 0 0-2.596-.615 2.364 2.364 0 0 0-.8.51 2.495 2.495 0 0 0-.76 1.738 3.959 3.959 0 0 1-.658 2.088 3.807 3.807 0 0 1-1.655 1.389v-9.06a.696.696 0 0 0-.128-.404.666.666 0 0 0-.337-.249.649.649 0 0 0-.415.005.668.668 0 0 0-.331.256l-2.823 4.124H8.796l4.052-5.932zm1.302 4.364v7.205c-.054.002-.109.008-.163.008h-4.77l4.933-7.213zM4.642 31.569c-.963 0-1.345-.944-.953-1.749l4.175-6.114h2.651l-3.124 4.567a.704.704 0 0 0 .203.973.66.66 0 0 0 .341.104h6.052a5.077 5.077 0 0 0 3.912-1.837 5.325 5.325 0 0 0 1.226-3.275 1.136 1.136 0 0 1 .342-.781 1.063 1.063 0 0 1 1.514.043c.195.207.304.483.305.772v.039a7.896 7.896 0 0 1-.335 2.041 7.42 7.42 0 0 1-2.34 3.552 7.113 7.113 0 0 1-3.863 1.625c-.258.026-.514.04-.76.04H4.642zm23.033 14.589l4.104-1.263a.695.695 0 0 1 .631.115.746.746 0 0 1 .287.589v3.177c0 .194-.075.38-.209.518a.704.704 0 0 1-.504.214h-4.31l.001-3.35zM7.825 40.89a.695.695 0 0 1 .235-.937l.483-.293a.65.65 0 0 1 .504-.073.668.668 0 0 1 .407.314.7.7 0 0 1 .072.518.682.682 0 0 1-.306.418l-.483.293a.655.655 0 0 1-.913-.24h.002z" fill="#fff" stroke="#fff" stroke-width=".4"/></svg>