<svg width="143" height="75" fill="none" xmlns="http://www.w3.org/2000/svg"><path d="M10.371 72.12h.526c.449-.89.69-1.988.69-3.797v-.764h3.777v4.56h.671l-.131 2.01h-.789v-1.16h-3.822l-.093 1.16h-.829v-2.01zm4.04 0v-3.704H12.5v.618c0 1.253-.218 2.336-.588 3.086h2.499zm2.484-4.56h4.034v.856h-3.105v1.246h1.51c1.194 0 1.965.594 1.965 1.64 0 1.044-.774 1.67-2.01 1.67h-2.395v-5.413zm2.197 4.56c.82 0 1.269-.194 1.269-.86 0-.525-.395-.794-1.1-.794h-1.433v1.654h1.264zm5.207-4.599h.881l2.39 5.448h-1.006l-.55-1.305h-2.56l-.56 1.305h-.984l2.389-5.448zm1.361 3.3l-.936-2.164-.93 2.165h1.866zm4.68-.147h-.888v2.295h-.956v-5.41h.956v2.265h.895c.18-1.339 1.195-2.358 2.585-2.358 1.54 0 2.601 1.23 2.601 2.8 0 1.57-1.067 2.796-2.615 2.796-1.41 0-2.408-1.019-2.578-2.388zm4.23-.409c0-1.083-.68-1.933-1.64-1.933-.96 0-1.618.836-1.618 1.934 0 1.097.674 1.94 1.632 1.94.958 0 1.627-.843 1.627-1.94zm5.297.564a3.68 3.68 0 0 1-1.541.455c-1.06 0-1.787-.556-1.787-1.723V67.56h.956v1.773c0 .68.332 1.084 1.005 1.084a2.63 2.63 0 0 0 1.371-.425V67.56h.956v5.41h-.956l-.004-2.14zm2.348-3.269h.936v3.949l2.738-3.95h.89v5.41h-.936v-3.942l-2.732 3.942h-.896v-5.41zm8.285 0h4.418v5.41h-.956v-4.554h-2.51v4.553h-.956l.005-5.41zm5.809 0h2.15c1.26 0 2.059.715 2.059 1.822 0 1.215-.975 1.847-2.167 1.847h-1.087v1.74h-.955v-5.41zm2.059 2.813c.716 0 1.168-.404 1.168-.983 0-.633-.456-.955-1.168-.955h-1.104v1.947l1.104-.01zm2.878-.108a2.828 2.828 0 0 1 1.728-2.639 2.835 2.835 0 0 1 3.883 2.047 2.827 2.827 0 0 1-1.207 2.915 2.835 2.835 0 0 1-1.58.474 2.776 2.776 0 0 1-2.616-1.716 2.768 2.768 0 0 1-.208-1.08zm4.666 0a1.852 1.852 0 0 0-1.842-1.925c-1.075 0-1.825.856-1.825 1.925a1.85 1.85 0 0 0 1.842 1.924c1.075.007 1.825-.857 1.825-1.924zm5.802-1.825h-1.718v-.88h4.395v.88h-1.717v4.534h-.956l-.004-4.534zm3.686-.88h4.015v.849H76.35v1.4h2.716v.85H76.35v1.453h3.105v.85h-4.06l.004-5.403zm5.187 0h4.039v.856H81.52v1.246h1.51c1.195 0 1.964.594 1.964 1.64 0 1.044-.774 1.67-2.011 1.67h-2.397v-5.413zm2.197 4.56c.82 0 1.269-.194 1.269-.86 0-.525-.394-.794-1.1-.794H81.52v1.654h1.264zm3.296-4.56h4.016v.849h-3.062v1.4h2.716v.85h-2.716v1.453h3.105v.85h-4.06l.002-5.403z" fill="#4D64AA"/><path fill-rule="evenodd" clip-rule="evenodd" d="M21.887 20.842v33.75H12.14v-33.75H.41v-9.736h38.412a16.955 16.955 0 0 1 12.968 6.107 22.786 22.786 0 0 1 16.358-7.014v9.653c-7.106 0-12.97 5.858-12.97 13.039a12.974 12.974 0 0 0 2.975 8.238 13.007 13.007 0 0 0 16.202 3.151 12.986 12.986 0 0 0 5.852-6.521H68.148V28.02h22.137c.405 1.591.6 3.229.578 4.87 0 12.462-10.243 22.692-22.715 22.692-9.077 0-17.1-5.526-20.653-13.449a16.366 16.366 0 0 1-8.673 2.475h-.084v9.984h-9.746V28.02h9.746v6.851h.084a7.026 7.026 0 0 0 4.881-2.1 7.012 7.012 0 0 0 0-9.83 7.026 7.026 0 0 0-4.882-2.099H21.889z" fill="#F33525"/><path fill-rule="evenodd" clip-rule="evenodd" d="M115.235 32.89l-17.438-4.373 22.717 2.229A42.402 42.402 0 0 0 104.989.128c11.732 5.694 19.992 17.42 20.654 31.11l16.769 1.652-16.769 1.568a36.254 36.254 0 0 1-6.035 18.362 36.296 36.296 0 0 1-14.619 12.66 41.87 41.87 0 0 0 15.527-30.45l-22.717 2.15 17.436-4.288z" fill="#4D64AA"/></svg>