<svg width="123" height="64" fill="none" xmlns="http://www.w3.org/2000/svg"><path d="M9.267 62.21h.452c.386-.768.594-1.717.594-3.28v-.66h3.25v3.94h.577l-.113 1.737h-.678v-1.002H10.06l-.08 1.002h-.713V62.21zm3.475 0v-3.199h-1.644v.534c0 1.082-.187 2.018-.506 2.666h2.15zm2.137-3.94h3.472v.741h-2.672v1.076h1.299c1.027 0 1.691.514 1.691 1.417s-.666 1.443-1.73 1.443h-2.06v-4.676zm1.891 3.94c.705 0 1.091-.166 1.091-.741 0-.454-.339-.687-.945-.687h-1.233v1.429h1.087zm4.48-3.972h.76l2.055 4.707h-.866l-.472-1.127h-2.204l-.48 1.127h-.848l2.056-4.707zm1.172 2.852l-.805-1.87-.8 1.87h1.605zm4.028-.128h-.764v1.984h-.823v-4.674h.823v1.956h.77c.154-1.156 1.028-2.037 2.224-2.037 1.326 0 2.239 1.062 2.239 2.419s-.92 2.416-2.251 2.416c-1.213 0-2.072-.88-2.218-2.064zm3.64-.352c0-.936-.585-1.67-1.412-1.67-.826 0-1.391.721-1.391 1.67 0 .948.58 1.676 1.404 1.676s1.4-.728 1.4-1.676zm4.555.486c-.407.227-.86.362-1.325.393-.913 0-1.538-.48-1.538-1.488v-1.73h.822v1.532c0 .587.286.936.866.936.42-.01.828-.137 1.18-.367V58.27h.822v4.674h-.822l-.005-1.85zm2.023-2.824h.806v3.412l2.355-3.412h.767v4.674h-.806v-3.407l-2.351 3.407h-.771v-4.674zm7.129 0h3.8v4.674h-.822v-3.934h-2.16v3.934h-.822l.004-4.674zm4.996-.002h1.85c1.085 0 1.772.62 1.772 1.576 0 1.05-.839 1.596-1.865 1.596h-.935v1.503h-.822V58.27zm1.772 2.432c.616 0 1.005-.349 1.005-.85 0-.546-.393-.824-1.005-.824h-.95v1.682l.95-.008zm2.477-.092a2.451 2.451 0 0 1 1.487-2.28 2.432 2.432 0 0 1 2.667.514 2.447 2.447 0 0 1-1.724 4.182 2.378 2.378 0 0 1-1.724-.693 2.393 2.393 0 0 1-.706-1.723zm4.014 0a1.605 1.605 0 0 0-.962-1.533 1.593 1.593 0 0 0-.622-.131c-.925 0-1.57.74-1.57 1.664a1.604 1.604 0 0 0 .962 1.531c.197.085.408.13.622.13.925.007 1.57-.74 1.57-1.661zm4.996-1.578h-1.478v-.76h3.782v.76h-1.478v3.918h-.822l-.004-3.918zm3.175-.76h3.455v.733h-2.637v1.21h2.337v.735h-2.337v1.255h2.672v.734h-3.494l.004-4.667zm4.457 0h3.475v.74h-2.672v1.076h1.3c1.027 0 1.689.513 1.689 1.416 0 .903-.666 1.444-1.73 1.444h-2.062v-4.676zm1.89 3.94c.706 0 1.092-.168 1.092-.743 0-.453-.34-.686-.945-.686h-1.234v1.428h1.088zm2.838-3.942h3.455v.735h-2.635v1.21h2.337v.734h-2.337v1.256h2.672v.734h-3.495l.002-4.668z" fill="#fff"/><path fill-rule="evenodd" clip-rule="evenodd" d="M19.176 17.909v29.16h-8.388v-29.16H.695V9.495h33.053a14.54 14.54 0 0 1 6.163 1.396 14.582 14.582 0 0 1 4.996 3.88 19.604 19.604 0 0 1 6.423-4.465 19.555 19.555 0 0 1 7.653-1.594v8.34c-6.115 0-11.162 5.062-11.162 11.265a11.238 11.238 0 0 0 2.561 7.118 11.175 11.175 0 0 0 6.484 3.866c2.543.497 5.179.093 7.457-1.144a11.204 11.204 0 0 0 5.036-5.633H58.983V24.11H78.03c.349 1.375.516 2.79.497 4.209 0 10.766-8.814 19.605-19.545 19.605-7.811 0-14.715-4.775-17.772-11.62a14.04 14.04 0 0 1-7.463 2.138h-.072v8.626h-8.387V24.11h8.387v5.92h.072a6.034 6.034 0 0 0 4.2-1.814 6.071 6.071 0 0 0 0-8.493 6.034 6.034 0 0 0-4.2-1.814H19.176zm80.322 10.409l-15.005-3.78 19.548 1.926a36.736 36.736 0 0 0-3.892-14.642A36.618 36.618 0 0 0 90.682.012c10.095 4.92 17.202 15.05 17.772 26.88l14.429 1.426-14.429 1.354a31.413 31.413 0 0 1-5.193 15.866 31.275 31.275 0 0 1-12.579 10.938 36.181 36.181 0 0 0 9.476-11.726 36.288 36.288 0 0 0 3.885-14.583l-19.548 1.856 15.003-3.705z" fill="#fff"/></svg>